<svg version="1.1" id="Layer_1" xmlns="http://www.w3.org/2000/svg" xmlns:xlink="http://www.w3.org/1999/xlink" x="0px" y="0px"
	 width="100%" viewBox="0 0 625 622" enable-background="new 0 0 625 622" xml:space="preserve">
<path fill="#38B6FF" opacity="1.000000" stroke="none" 
	d="
M2.000000,1.000000 
	C209.953369,1.000000 417.906738,1.000000 625.930054,1.000000 
	C625.930054,208.240173 625.930054,415.480377 625.930054,623.000000 
	C418.306549,623.000000 210.612976,623.000000 2.460141,622.540283 
	C2.000582,415.053711 2.000291,208.026855 2.000000,1.000000 
M479.300629,299.825287 
	C479.301453,299.572815 479.302277,299.320343 479.303070,299.067871 
	C479.176239,299.363831 479.049408,299.659821 478.789459,300.060944 
	C478.789459,300.060944 478.812805,300.296722 478.812805,300.296722 
	C478.812805,300.296722 479.042419,300.071564 479.300629,299.825287 
M183.648331,338.359955 
	C182.427994,338.251740 181.207642,338.143524 179.278275,337.851624 
	C177.793533,337.826813 176.148468,337.382843 174.861511,337.875092 
	C172.919159,338.618042 170.274368,339.670471 169.709610,341.234619 
	C169.197266,342.653564 171.066101,344.932312 172.262482,347.136658 
	C172.545334,347.321320 172.854477,347.393860 174.042542,347.649048 
	C177.027039,347.694672 180.096619,348.181671 182.965744,347.628693 
	C184.837036,347.267975 186.417145,345.396667 188.512924,343.620911 
	C188.978165,340.157562 187.129120,338.942078 183.991547,339.010498 
	C183.991547,339.010498 184.028976,339.000336 183.648331,338.359955 
M252.442322,266.244629 
	C252.364029,266.838318 252.285721,267.431976 252.425842,268.725067 
	C255.627319,272.761932 259.985168,270.592743 264.643982,270.908173 
	C264.894531,270.879425 265.145081,270.850677 266.105408,270.951996 
	C269.715485,271.134583 271.454529,269.168823 271.291290,265.809418 
	C271.121155,262.307617 268.675293,261.044403 265.431732,261.096985 
	C263.104675,261.134735 260.778748,261.243591 257.636078,261.204224 
	C254.307571,261.093658 252.951324,262.882721 253.020660,266.013428 
	C253.020660,266.013428 253.019562,265.987823 252.442322,266.244629 
M209.514633,358.363617 
	C206.362717,356.973419 203.210785,355.583191 199.372437,354.026154 
	C198.902405,354.013214 198.432358,354.000305 197.287262,353.700562 
	C182.792191,352.821808 172.301682,363.355988 173.040405,378.653748 
	C173.085602,379.106293 173.130783,379.558868 173.084396,380.829529 
	C174.094315,384.563110 175.104233,388.296661 176.266037,392.700134 
	C176.379425,392.899017 176.492828,393.097931 176.703461,393.940186 
	C181.501129,403.034485 186.159271,412.206421 191.159409,421.188019 
	C193.422684,425.253448 197.713211,424.727386 200.062164,420.535797 
	C202.319107,416.508301 204.827255,412.621155 207.068634,408.585480 
	C213.046539,397.822144 219.158432,387.080597 218.007111,373.352936 
	C217.951920,372.895233 217.896729,372.437500 217.834747,371.239899 
	C215.360260,367.324738 212.885773,363.409607 210.179810,359.158478 
	C210.179810,359.158478 209.842545,358.933136 209.514633,358.363617 
M300.803345,271.037079 
	C304.461884,270.606995 309.175903,272.912445 310.916199,266.410095 
	C310.541565,262.746613 308.253357,261.352600 303.963989,261.143433 
	C301.804260,261.125458 299.644409,261.115540 297.484802,261.087677 
	C294.021301,261.043060 291.427124,262.369202 291.467529,266.129333 
	C291.511505,270.218018 294.151123,271.505859 298.597015,270.977264 
	C299.037964,270.953430 299.478943,270.929565 300.803345,271.037079 
M124.154564,286.036377 
	C120.038147,286.973602 115.921730,287.910828 111.136955,289.018433 
	C101.102554,294.814453 96.971474,303.962799 99.564240,314.646454 
	C101.820045,323.941650 109.063347,329.041016 121.921738,329.910706 
	C125.701279,329.488159 129.545639,329.367035 133.245041,328.571777 
	C138.669342,327.405762 140.051147,324.051117 137.600845,317.878448 
	C134.838852,324.750671 130.080444,328.298401 122.209938,328.016357 
	C113.819611,326.529358 109.193153,321.042603 107.119957,313.248932 
	C104.795578,304.510986 105.668137,296.395874 113.761284,289.829163 
	C117.512764,289.182159 121.264252,288.535156 125.698196,288.099487 
	C129.759689,290.872437 133.821167,293.645386 137.668777,296.272339 
	C138.569794,288.590363 138.336380,288.218964 130.432922,286.723541 
	C128.658188,286.387787 126.827698,286.346771 124.154564,286.036377 
M327.810516,342.217926 
	C327.447418,346.070526 329.675781,347.562408 333.068542,347.757843 
	C335.182220,347.879578 337.314087,347.684631 339.950165,347.754272 
	C340.647858,347.544647 341.345551,347.334991 342.816162,347.176453 
	C346.090454,346.747223 347.287720,344.673523 346.883484,341.650452 
	C346.442902,338.355743 344.072479,337.577362 341.149841,337.717377 
	C338.705475,337.834473 336.259033,337.908020 333.276550,337.782806 
	C330.535339,337.608521 328.348633,338.215973 327.810516,342.217926 
M133.546967,389.070496 
	C133.461258,389.388885 133.375534,389.707275 133.133423,390.796051 
	C134.460754,394.477386 135.432877,398.341187 137.206177,401.793457 
	C139.377884,406.021301 142.534332,405.946136 146.332764,401.727112 
	C146.520752,401.468109 146.600937,401.179230 146.753250,400.142426 
	C145.327393,396.349915 144.144745,392.441528 142.407944,388.797211 
	C140.637848,385.083099 137.166367,385.173920 133.546967,389.070496 
M365.096344,324.227997 
	C362.767975,326.847168 361.698303,329.724152 364.692383,332.391296 
	C367.432465,334.832153 370.079437,334.248322 372.598511,330.696564 
	C374.229065,328.035736 376.441376,325.542969 377.276642,322.652344 
	C377.795410,320.857178 376.667999,317.015228 375.496063,316.657318 
	C373.561371,316.066528 370.620544,317.027435 368.804932,318.319580 
	C367.242523,319.431610 366.659058,321.919098 365.096344,324.227997 
M402.077698,318.362518 
	C410.303925,312.498444 410.689392,304.580109 402.822235,299.222076 
	C405.048035,299.148224 407.405182,299.499268 409.457581,298.864624 
	C411.068726,298.366394 412.303131,296.649841 413.704926,295.474548 
	C412.243195,294.721802 410.383484,292.990540 409.391876,293.393799 
	C405.969116,294.785797 402.849121,296.922272 398.966583,298.503723 
	C398.046234,298.423615 397.125916,298.343475 395.512177,298.112549 
	C383.450348,300.108154 380.181793,307.934204 387.076111,318.201965 
	C387.363495,318.629974 387.112518,319.419525 386.471039,320.338043 
	C382.583893,323.491180 383.976715,326.564514 386.541809,329.256805 
	C384.964478,331.003052 383.360901,332.478333 382.120789,334.213379 
	C379.511322,337.864380 380.285858,341.816833 383.864410,344.137817 
	C389.525208,347.809296 400.532806,345.659424 405.649841,339.981079 
	C407.101013,338.702423 408.552185,337.423737 410.455780,335.617676 
	C414.001251,328.595245 412.560577,325.551392 404.852814,324.458771 
	C401.443085,323.975433 397.914581,324.335419 394.502472,323.862061 
	C392.204681,323.543274 388.749115,324.201904 389.804810,319.885071 
	C393.198669,319.585815 396.592529,319.286560 400.494171,318.977783 
	C400.808960,318.864014 401.123718,318.750244 402.077698,318.362518 
M490.333252,326.322083 
	C484.772278,329.238739 480.436829,327.909424 477.108154,322.120575 
	C473.276276,315.456665 472.822601,308.447784 475.889130,301.049164 
	C467.701263,303.087616 465.095337,315.269897 468.639679,321.793274 
	C472.898529,329.631866 483.518616,332.093262 492.635040,326.813660 
	C499.395416,321.660492 501.717438,314.115845 498.694366,307.125732 
	C495.965973,300.817078 490.074310,298.107391 482.000092,299.447815 
	C491.709473,304.125763 495.537567,315.420593 490.333252,326.322083 
M513.835754,306.043396 
	C516.118835,300.843170 520.157959,304.732727 523.304382,304.070068 
	C525.198975,303.671021 526.790833,301.834503 528.518799,300.643951 
	C526.802856,299.787659 524.779053,297.881256 523.430176,298.276794 
	C519.746460,299.357056 516.347412,301.408051 512.905273,302.296631 
	C512.740295,300.967621 512.575317,299.638580 512.355286,297.865723 
	C509.079285,299.325958 506.568329,300.445160 504.435669,301.395782 
	C507.177551,310.874817 506.569733,319.741211 504.887787,328.825012 
	C507.855804,328.825012 511.133087,328.825012 513.346436,328.825012 
	C513.346436,321.274811 513.346436,313.919403 513.835754,306.043396 
M225.721405,328.960419 
	C230.650604,327.868500 232.975632,324.558197 233.155121,319.748474 
	C233.325485,315.182526 230.217133,313.020996 226.446655,311.554932 
	C223.830261,310.537598 221.101501,309.763885 218.583466,308.548676 
	C213.710190,306.196960 213.553925,303.150482 218.802170,299.840851 
	C224.681717,298.658508 227.730469,303.114685 231.736984,306.445587 
	C231.620895,303.643555 231.205521,299.791534 229.916595,299.472870 
	C226.128479,298.536316 221.993500,299.002747 217.247833,298.927185 
	C212.829178,299.824005 210.089172,302.406677 209.893524,306.993164 
	C209.701141,311.503204 212.627823,313.825592 216.502792,315.225525 
	C218.831406,316.066803 221.220093,316.762482 223.494690,317.728577 
	C229.256775,320.176025 229.768082,323.839661 224.205307,328.045227 
	C216.968811,329.017212 213.778839,323.404480 209.405365,319.014221 
	C209.636810,322.238953 209.979248,326.684723 211.734222,327.338440 
	C215.788773,328.848755 220.528046,328.520905 225.721405,328.960419 
M355.597168,320.091095 
	C352.731964,313.183685 349.866760,306.276276 346.847870,298.998352 
	C344.850555,298.998352 341.654755,298.998352 338.978577,298.998352 
	C342.529541,307.216888 345.914490,315.296539 349.536926,323.268311 
	C350.480896,325.345703 352.165039,327.086761 353.509216,328.982269 
	C354.906982,326.976715 356.316589,324.979126 357.687408,322.955322 
	C357.857452,322.704346 357.821564,322.313904 358.353607,321.469818 
	C361.431915,313.904938 364.510223,306.340057 367.651611,298.620178 
	C365.887573,298.620178 364.135132,298.620178 362.511932,298.620178 
	C363.640625,307.205872 359.323578,313.897705 355.597168,320.091095 
M160.473892,324.710876 
	C161.092072,324.002655 161.710251,323.294434 162.475845,322.417297 
	C164.232544,330.330322 164.423920,330.465668 171.388016,329.335632 
	C170.907043,326.295563 170.197281,323.293152 170.010117,320.258514 
	C169.764664,316.278687 170.003632,312.271606 169.901199,308.279694 
	C169.791718,304.012512 168.464539,300.196594 164.048767,298.763580 
	C159.489914,297.284119 154.885513,297.196075 150.322845,300.784088 
	C160.922516,301.116486 159.849808,301.406677 162.085495,309.671295 
	C163.733459,315.763336 161.094482,319.363708 158.033524,324.038910 
	C155.485413,323.822144 151.673553,324.579071 150.619568,323.211060 
	C147.063797,318.596039 150.892975,315.329315 154.732925,312.163269 
	C147.977371,313.035187 143.763016,316.106750 143.053543,320.469147 
	C142.398376,324.497467 143.716751,327.703125 147.611435,329.415131 
	C152.155853,331.412811 156.527222,329.784821 160.473892,324.710876 
M431.473846,324.710876 
	C432.091980,324.002594 432.710114,323.294312 433.475739,322.417023 
	C435.232758,330.330475 435.423737,330.465546 442.388031,329.335663 
	C441.907043,326.295624 441.197205,323.293243 441.010040,320.258636 
	C440.764587,316.278809 441.003662,312.271698 440.901245,308.279785 
	C440.791748,304.012634 439.464600,300.196655 435.048859,298.763611 
	C430.489929,297.284088 425.885559,297.196136 421.322754,300.784088 
	C431.922546,301.116425 430.849701,301.406647 433.085449,309.671234 
	C434.733521,315.763367 432.094360,319.363647 429.033569,324.038910 
	C426.485443,323.822144 422.673615,324.579071 421.619629,323.211090 
	C418.063751,318.596069 421.892975,315.329315 425.732880,312.163300 
	C418.977478,313.035095 414.763214,316.106628 414.053558,320.469086 
	C413.398254,324.497467 414.716797,327.702972 418.611359,329.415070 
	C423.155701,331.412842 427.527130,329.784882 431.473846,324.710876 
M302.568207,317.071716 
	C301.725494,316.999542 300.882751,316.927399 299.710663,316.171814 
	C292.914886,307.572723 285.995361,299.067261 279.383362,290.329163 
	C276.681671,286.758728 273.647522,285.798920 270.024567,286.899536 
	C270.750641,289.439575 271.400818,291.714081 271.963562,294.923920 
	C271.797974,306.133728 271.632385,317.343506 271.463531,328.772583 
	C272.677063,328.772583 275.019623,328.772583 276.309540,328.772583 
	C275.477325,324.930450 274.170471,321.278107 273.992889,317.571686 
	C273.643951,310.288300 273.922882,302.974823 274.571198,296.004333 
	C283.489960,307.151276 292.408752,318.298218 301.327515,329.445160 
	C301.747955,329.275024 302.168396,329.104858 302.588837,328.934723 
	C302.588837,325.247833 302.588837,321.560974 302.568207,317.071716 
M327.930786,310.276672 
	C329.394226,314.954712 327.191711,322.351501 323.144135,324.086060 
	C321.257812,324.894440 317.449860,324.730164 316.567810,323.515076 
	C315.362854,321.855164 315.570007,318.615265 316.219147,316.353210 
	C316.676697,314.758789 318.875183,313.663940 320.402130,312.248016 
	C314.507874,312.548981 309.213928,315.626038 308.960236,319.987823 
	C308.794128,322.843842 310.009796,327.205231 312.096191,328.509613 
	C319.412231,333.083405 324.256439,327.887787 328.641571,321.781769 
	C329.487457,330.137756 330.928650,331.138397 336.889313,328.969482 
	C336.505859,326.281219 335.943024,323.743286 335.822083,321.184448 
	C335.594208,316.363312 335.845154,311.512756 335.473816,306.707153 
	C335.154327,302.572510 332.987854,299.238464 328.735046,298.364929 
	C324.218323,297.437164 319.626068,297.457550 314.983368,301.080627 
	C318.570770,301.080627 321.325012,300.559723 323.728088,301.254089 
	C325.484680,301.761566 327.084290,303.676086 328.137085,305.351105 
	C328.588531,306.069336 327.474945,307.771271 326.684662,309.078217 
	C326.813446,309.376923 326.942230,309.675629 327.930786,310.276672 
M239.009232,269.745972 
	C244.580154,259.194061 250.776138,248.913574 255.514832,238.000305 
	C259.006897,229.957962 260.225830,221.442627 255.308075,212.673355 
	C250.260773,203.673111 239.266754,198.283264 229.228470,201.540207 
	C216.252502,205.750290 209.313492,218.074188 214.265228,232.316025 
	C218.640686,244.900360 225.541687,256.620575 231.539429,268.616455 
	C232.931427,271.400543 235.630478,271.764130 239.009232,269.745972 
M203.889679,318.339294 
	C203.889679,311.756439 203.889679,305.173553 203.889679,297.738373 
	C200.284500,299.259460 197.617096,300.384888 194.904236,301.529480 
	C198.755737,308.162781 197.232040,315.117615 196.598419,321.643951 
	C196.403824,323.648102 191.559189,326.068756 188.513123,326.698273 
	C185.062927,327.411346 183.962799,324.015472 183.792068,321.009033 
	C183.603622,317.690796 183.680664,314.356750 183.668640,311.029480 
	C183.653397,306.810852 183.664963,302.592163 183.664963,297.548157 
	C179.768600,299.252045 177.103470,300.417480 175.551376,301.096222 
	C175.926544,305.814880 176.748199,309.699646 176.445007,313.494507 
	C175.353027,327.161835 180.827972,334.999512 194.645172,326.923615 
	C198.978058,327.999878 202.079163,328.770142 205.047531,329.507446 
	C204.587906,325.447632 204.239090,322.366577 203.889679,318.339294 
M244.927216,328.938385 
	C253.284515,331.530365 260.044647,329.429718 263.390717,323.016632 
	C259.921387,323.675842 256.422211,325.252686 253.327927,324.671997 
	C250.238174,324.092133 246.800064,321.918640 244.905228,319.398315 
	C243.036194,316.912323 242.908936,313.116791 241.754730,308.946228 
	C250.450012,308.946228 257.824249,308.946228 265.256500,308.946228 
	C264.282959,302.067871 260.519958,298.473145 254.402222,298.001404 
	C246.455658,297.388702 239.935730,301.514221 237.347092,308.792969 
	C234.511154,316.767212 236.941391,323.793182 244.927216,328.938385 
M454.853149,290.969360 
	C451.594330,293.543823 448.335510,296.118256 446.190521,297.812775 
	C447.546326,300.597961 448.883026,302.122406 448.954193,303.703766 
	C449.246185,310.190826 448.706360,316.745850 449.434906,323.166687 
	C449.702118,325.521545 452.240967,328.594788 454.472717,329.460327 
	C456.475159,330.236969 459.478058,328.433960 461.734955,327.848053 
	C459.298401,325.248230 456.393921,323.599976 456.245911,321.733185 
	C455.686188,314.673187 456.020844,307.542328 456.020844,300.283539 
	C459.091614,300.083801 461.615356,299.919678 464.139099,299.755524 
	C462.934509,298.819824 461.719482,298.691681 460.505219,298.556793 
	C459.083740,298.398834 457.662872,298.235016 456.270599,298.076996 
	C455.969635,295.482452 455.723724,293.362305 454.853149,290.969360 
M256.738159,337.728699 
	C255.747421,337.736053 254.755997,337.770447 253.766052,337.745911 
	C250.351685,337.661285 247.884552,339.478210 248.485901,342.664978 
	C248.850662,344.598114 251.412338,347.004456 253.424316,347.532684 
	C256.508118,348.342316 260.156342,348.357422 263.201935,347.467316 
	C265.138489,346.901306 267.309662,344.238495 267.653839,342.222015 
	C267.857147,341.031158 264.912079,338.834106 262.989105,337.900909 
	C261.514862,337.185547 259.424530,337.739807 256.738159,337.728699 
M300.098572,337.730011 
	C297.952057,337.732819 295.804932,337.768372 293.659149,337.730560 
	C290.674683,337.677948 288.325928,338.567657 288.100830,341.950836 
	C287.872925,345.376587 289.992920,347.198303 293.087891,347.622803 
	C295.684204,347.978912 298.359131,347.757446 300.999146,347.799927 
	C304.594055,347.857788 307.436340,346.561096 307.446411,342.622131 
	C307.456787,338.570984 304.562164,337.454376 300.098572,337.730011 
M373.211700,279.404541 
	C371.004608,279.330566 367.897461,278.354004 366.827789,279.420654 
	C365.605988,280.639008 365.613953,283.826813 366.146423,285.884827 
	C366.835876,288.549683 368.149475,291.335602 369.995483,293.326508 
	C371.394806,294.835632 374.400604,296.259888 376.035461,295.723236 
	C377.471619,295.251892 379.140656,291.689941 378.689148,290.047791 
	C377.707245,286.476654 375.438293,283.259369 373.211700,279.404541 
M217.435425,347.777130 
	C220.493134,346.551392 224.069305,345.946350 226.473389,343.938141 
	C229.288666,341.586426 227.791687,338.188568 224.055283,337.883789 
	C220.428696,337.587921 216.690720,337.408905 213.139465,338.002716 
	C211.536469,338.270782 209.150925,340.517273 209.125473,341.902924 
	C209.092468,343.699646 210.772903,345.844910 212.277023,347.231049 
	C213.146286,348.032166 215.120239,347.634583 217.435425,347.777130 
M348.429108,262.765564 
	C344.211243,262.219360 340.003815,261.374908 335.772003,261.226410 
	C332.688843,261.118225 330.505951,263.417023 331.253845,266.364258 
	C331.718201,268.193970 333.982483,270.132507 335.887543,270.882324 
	C338.076202,271.743805 340.791199,271.649689 343.220001,271.403351 
	C345.310150,271.191345 348.116211,270.760162 349.133972,269.357788 
	C350.097778,268.029785 349.148315,265.313232 348.429108,262.765564 
M144.961716,365.713531 
	C147.461929,362.121429 149.962158,358.529327 152.850983,354.378906 
	C150.883621,353.811279 149.870667,353.832764 149.416901,353.339691 
	C144.786392,348.307739 142.365234,352.140076 139.859619,355.646240 
	C139.183548,356.592285 138.224884,357.538208 138.045288,358.594574 
	C137.688141,360.695099 136.887390,363.762665 137.914139,364.794403 
	C139.222931,366.109589 142.159973,365.804352 144.961716,365.713531 
M173.337875,424.006073 
	C176.616196,424.175140 179.324936,422.951111 179.076599,419.456024 
	C178.948639,417.655212 177.098938,415.018768 175.462708,414.482574 
	C172.059753,413.367432 168.287521,413.123749 164.654556,413.035065 
	C160.722046,412.939087 159.074005,415.580475 161.755615,418.188080 
	C164.566849,420.921722 168.865585,422.125610 173.337875,424.006073 
M298.326294,288.740570 
	C299.456451,291.174683 300.586609,293.608795 302.037720,296.734131 
	C302.853912,293.007355 303.519012,289.970551 304.243378,286.663239 
	C302.029205,286.663239 299.888458,286.663239 297.747742,286.663239 
	C297.767639,287.213562 297.787537,287.763916 298.326294,288.740570 
M427.269836,311.770996 
	C427.435699,311.636200 427.601593,311.501373 427.767456,311.366577 
	C427.578522,311.410614 427.389557,311.454651 427.269836,311.770996 
M156.730194,311.229004 
	C156.564301,311.363800 156.398422,311.498627 156.232529,311.633423 
	C156.421463,311.589417 156.610413,311.545410 156.730194,311.229004 
M160.576828,420.464752 
	C160.576828,420.464752 160.519867,420.471191 160.576828,420.464752 
M476.530762,299.503448 
	C476.530762,299.503448 476.487061,299.520813 476.530762,299.503448 
z"/>
<path fill="#E4E5E9" opacity="1.000000" stroke="none" 
	d="
M1.500000,1.000000 
	C2.000291,208.026855 2.000582,415.053711 2.000429,622.540283 
	C1.666651,622.833374 1.056177,622.684082 1.044438,622.497192 
	C0.960999,621.169128 1.000000,619.833313 1.000000,618.500000 
	C1.000000,412.666656 1.000000,206.833328 1.500000,1.000000 
z"/>
<path fill="#EDF0F1" opacity="1.000000" stroke="none" 
	d="
M238.709030,269.976624 
	C235.630478,271.764130 232.931427,271.400543 231.539429,268.616455 
	C225.541687,256.620575 218.640686,244.900360 214.265228,232.316025 
	C209.313492,218.074188 216.252502,205.750290 229.228470,201.540207 
	C239.266754,198.283264 250.260773,203.673111 255.308075,212.673355 
	C260.225830,221.442627 259.006897,229.957962 255.514832,238.000305 
	C250.776138,248.913574 244.580154,259.194061 238.709030,269.976624 
M227.059036,240.454315 
	C229.785797,245.420990 232.512558,250.387665 235.656082,256.113495 
	C241.717682,244.952515 248.721603,235.324814 248.052063,222.666214 
	C247.694611,215.908340 243.325378,211.073746 236.609406,210.762878 
	C229.363785,210.427505 224.011108,215.120819 222.939590,221.791306 
	C221.874222,228.423721 224.892014,233.882599 227.059036,240.454315 
z"/>
<path fill="#EDF0F1" opacity="1.000000" stroke="none" 
	d="
M217.935883,374.043884 
	C219.158432,387.080597 213.046539,397.822144 207.068634,408.585480 
	C204.827255,412.621155 202.319107,416.508301 200.062164,420.535797 
	C197.713211,424.727386 193.422684,425.253448 191.159409,421.188019 
	C186.159271,412.206421 181.501129,403.034485 176.902756,393.462677 
	C177.408401,392.314697 177.714737,391.644226 178.005447,390.981567 
	C177.989822,390.989349 177.970169,391.018250 178.278320,391.038574 
	C179.068985,390.701263 179.551483,390.343597 180.017395,389.992676 
	C180.000793,389.999390 179.983627,390.030823 180.287018,389.893250 
	C182.068741,389.839172 183.547043,389.922729 185.005875,390.007538 
	C184.986389,390.008789 184.997559,389.971405 184.981216,390.287903 
	C185.356720,391.081696 185.748566,391.558960 186.347092,392.298981 
	C189.355408,397.747040 192.157059,402.932343 194.958710,408.117615 
	C195.595367,408.175293 196.232040,408.232971 196.868698,408.290649 
	C200.334671,400.168030 204.105988,392.158386 207.166870,383.885895 
	C209.481522,377.630249 208.868896,371.417328 204.185852,366.005371 
	C204.618835,365.173553 204.818954,364.572083 205.007690,363.983032 
	C204.996338,363.995453 204.971130,364.017792 205.359436,364.072327 
	C206.506134,364.258820 207.264511,364.390808 208.233795,364.742493 
	C210.785507,367.302704 213.126297,369.643158 215.708771,372.200378 
	C216.612274,372.959351 217.274078,373.501617 217.935883,374.043884 
z"/>
<path fill="#E2ECF2" opacity="1.000000" stroke="none" 
	d="
M203.889984,318.812408 
	C204.239090,322.366577 204.587906,325.447632 205.047531,329.507446 
	C202.079163,328.770142 198.978058,327.999878 194.645172,326.923615 
	C180.827972,334.999512 175.353027,327.161835 176.445007,313.494507 
	C176.748199,309.699646 175.926544,305.814880 175.551376,301.096222 
	C177.103470,300.417480 179.768600,299.252045 183.664963,297.548157 
	C183.664963,302.592163 183.653397,306.810852 183.668640,311.029480 
	C183.680664,314.356750 183.603622,317.690796 183.792068,321.009033 
	C183.962799,324.015472 185.062927,327.411346 188.513123,326.698273 
	C191.559189,326.068756 196.403824,323.648102 196.598419,321.643951 
	C197.232040,315.117615 198.755737,308.162781 194.904236,301.529480 
	C197.617096,300.384888 200.284500,299.259460 203.889679,297.738373 
	C203.889679,305.173553 203.889679,311.756439 203.889984,318.812408 
z"/>
<path fill="#E2ECF2" opacity="1.000000" stroke="none" 
	d="
M327.072418,309.026245 
	C327.474945,307.771271 328.588531,306.069336 328.137085,305.351105 
	C327.084290,303.676086 325.484680,301.761566 323.728088,301.254089 
	C321.325012,300.559723 318.570770,301.080627 314.983368,301.080627 
	C319.626068,297.457550 324.218323,297.437164 328.735046,298.364929 
	C332.987854,299.238464 335.154327,302.572510 335.473816,306.707153 
	C335.845154,311.512756 335.594208,316.363312 335.822083,321.184448 
	C335.943024,323.743286 336.505859,326.281219 336.889313,328.969482 
	C330.928650,331.138397 329.487457,330.137756 328.641571,321.781769 
	C324.256439,327.887787 319.412231,333.083405 312.096191,328.509613 
	C310.009796,327.205231 308.794128,322.843842 308.960236,319.987823 
	C309.213928,315.626038 314.507874,312.548981 320.402130,312.248016 
	C318.875183,313.663940 316.676697,314.758789 316.219147,316.353210 
	C315.570007,318.615265 315.362854,321.855164 316.567810,323.515076 
	C317.449860,324.730164 321.257812,324.894440 323.144135,324.086060 
	C327.191711,322.351501 329.394226,314.954712 327.466583,309.888428 
	C327.002380,309.500214 327.072418,309.026245 327.072418,309.026245 
z"/>
<path fill="#EDF0F1" opacity="1.000000" stroke="none" 
	d="
M173.115723,377.972778 
	C172.301682,363.355988 182.792191,352.821808 197.776398,354.134369 
	C198.849091,355.223053 199.432648,355.877930 200.226440,356.745209 
	C202.283096,358.129791 204.129532,359.301941 205.857971,360.829132 
	C205.483688,362.128723 205.227417,363.073242 204.971130,364.017792 
	C204.971130,364.017792 204.996338,363.995453 204.739014,364.103699 
	C203.811829,364.589447 203.141968,364.966919 202.097107,365.182709 
	C190.243866,360.896027 182.191376,366.880707 182.960693,379.007538 
	C183.085800,380.979553 183.461823,382.935638 183.469330,385.064178 
	C182.473495,385.477631 181.730209,385.725983 180.992966,385.990112 
	C180.999008,386.005920 181.029160,386.021240 180.914597,385.791809 
	C180.526215,385.365204 180.252411,385.168030 179.987396,384.987305 
	C179.996185,385.003815 180.029221,385.021362 179.913254,384.793030 
	C179.524368,384.366760 179.251450,384.168762 178.987350,383.987274 
	C178.996185,384.003784 179.029236,384.021423 178.913010,383.793274 
	C178.524002,383.367035 178.251236,383.168915 177.987335,382.987305 
	C177.996201,383.003815 178.029236,383.021484 177.913193,382.793213 
	C177.524261,382.366852 177.251373,382.168823 176.987335,381.987305 
	C176.996185,382.003815 177.029221,382.021484 176.913406,381.793030 
	C176.524551,381.366638 176.251495,381.168701 175.987320,380.987305 
	C175.996185,381.003815 176.029221,381.021484 175.913452,380.792969 
	C175.524612,380.366577 175.251526,380.168671 174.987854,379.986053 
	C174.997253,380.001312 175.031067,380.013153 174.916519,379.750244 
	C174.239883,378.982483 173.677795,378.477631 173.115723,377.972778 
z"/>
<path fill="#E5EDF2" opacity="1.000000" stroke="none" 
	d="
M244.567413,328.782654 
	C236.941391,323.793182 234.511154,316.767212 237.347092,308.792969 
	C239.935730,301.514221 246.455658,297.388702 254.402222,298.001404 
	C260.519958,298.473145 264.282959,302.067871 265.256500,308.946228 
	C257.824249,308.946228 250.450012,308.946228 241.754730,308.946228 
	C242.908936,313.116791 243.036194,316.912323 244.905228,319.398315 
	C246.800064,321.918640 250.238174,324.092133 253.327927,324.671997 
	C256.422211,325.252686 259.921387,323.675842 263.390717,323.016632 
	C260.044647,329.429718 253.284515,331.530365 244.567413,328.782654 
M254.023483,300.338959 
	C247.823822,297.944275 243.616730,300.852539 243.456345,307.562622 
	C248.284393,307.562622 253.103287,307.562622 259.178894,307.562622 
	C257.262268,304.720978 255.944427,302.767120 254.023483,300.338959 
z"/>
<path fill="#E6EDF1" opacity="1.000000" stroke="none" 
	d="
M272.051025,293.988586 
	C271.400818,291.714081 270.750641,289.439575 270.024567,286.899536 
	C273.647522,285.798920 276.681671,286.758728 279.383362,290.329163 
	C285.995361,299.067261 292.914886,307.572723 300.055298,316.726929 
	C301.129578,317.479370 301.859222,317.676727 302.588837,317.874084 
	C302.588837,321.560974 302.588837,325.247833 302.588837,328.934723 
	C302.168396,329.104858 301.747955,329.275024 301.327515,329.445160 
	C292.408752,318.298218 283.489960,307.151276 274.193848,295.572662 
	C273.227997,294.756866 272.639496,294.372711 272.051025,293.988586 
z"/>
<path fill="#E5EDF2" opacity="1.000000" stroke="none" 
	d="
M388.987213,319.996643 
	C388.749115,324.201904 392.204681,323.543274 394.502472,323.862061 
	C397.914581,324.335419 401.443085,323.975433 404.852814,324.458771 
	C412.560577,325.551392 414.001251,328.595245 409.903290,335.839966 
	C407.945435,334.334930 406.785095,331.466156 405.087250,331.101715 
	C400.612183,330.141174 395.879883,329.882477 391.300659,330.165039 
	C389.628693,330.268250 387.300476,332.392700 386.667358,334.109711 
	C385.232971,337.999664 388.214050,341.629120 393.290344,341.759277 
	C397.152710,341.858246 401.048523,340.650177 404.929474,340.023621 
	C400.532806,345.659424 389.525208,347.809296 383.864410,344.137817 
	C380.285858,341.816833 379.511322,337.864380 382.120789,334.213379 
	C383.360901,332.478333 384.964478,331.003052 386.541809,329.256805 
	C383.976715,326.564514 382.583893,323.491180 387.104248,320.186707 
	C388.154053,320.022491 388.570618,320.009583 388.987213,319.996643 
z"/>
<path fill="#E5EDF2" opacity="1.000000" stroke="none" 
	d="
M121.040916,329.766296 
	C109.063347,329.041016 101.820045,323.941650 99.564240,314.646454 
	C96.971474,303.962799 101.102554,294.814453 111.696999,289.102478 
	C112.508636,289.464050 112.760231,289.741577 113.011826,290.019135 
	C105.668137,296.395874 104.795578,304.510986 107.119957,313.248932 
	C109.193153,321.042603 113.819611,326.529358 122.401825,328.271362 
	C122.076111,328.939667 121.558510,329.352966 121.040916,329.766296 
z"/>
<path fill="#E5EDF2" opacity="1.000000" stroke="none" 
	d="
M455.165466,291.105774 
	C455.723724,293.362305 455.969635,295.482452 456.270599,298.076996 
	C457.662872,298.235016 459.083740,298.398834 460.505219,298.556793 
	C461.719482,298.691681 462.934509,298.819824 464.139099,299.755524 
	C461.615356,299.919678 459.091614,300.083801 456.020844,300.283539 
	C456.020844,307.542328 455.686188,314.673187 456.245911,321.733185 
	C456.393921,323.599976 459.298401,325.248230 461.734955,327.848053 
	C459.478058,328.433960 456.475159,330.236969 454.472717,329.460327 
	C452.240967,328.594788 449.702118,325.521545 449.434906,323.166687 
	C448.706360,316.745850 449.246185,310.190826 448.954193,303.703766 
	C448.883026,302.122406 447.546326,300.597961 446.190521,297.812775 
	C448.335510,296.118256 451.594330,293.543823 455.165466,291.105774 
z"/>
<path fill="#E2ECF2" opacity="1.000000" stroke="none" 
	d="
M429.756836,323.731750 
	C432.094360,319.363647 434.733521,315.763367 433.085449,309.671234 
	C430.849701,301.406647 431.922546,301.116425 421.322754,300.784088 
	C425.885559,297.196136 430.489929,297.284088 435.048859,298.763611 
	C439.464600,300.196655 440.791748,304.012634 440.901245,308.279785 
	C441.003662,312.271698 440.764587,316.278809 441.010040,320.258636 
	C441.197205,323.293243 441.907043,326.295624 442.388031,329.335663 
	C435.423737,330.465546 435.232758,330.330475 433.475739,322.417023 
	C432.710114,323.294312 432.091980,324.002594 430.908691,324.527588 
	C430.147980,324.140106 429.952423,323.935944 429.756836,323.731750 
z"/>
<path fill="#E2ECF2" opacity="1.000000" stroke="none" 
	d="
M158.756790,323.731781 
	C161.094482,319.363708 163.733459,315.763336 162.085495,309.671295 
	C159.849808,301.406677 160.922516,301.116486 150.322845,300.784088 
	C154.885513,297.196075 159.489914,297.284119 164.048767,298.763580 
	C168.464539,300.196594 169.791718,304.012512 169.901199,308.279694 
	C170.003632,312.271606 169.764664,316.278687 170.010117,320.258514 
	C170.197281,323.293152 170.907043,326.295563 171.388016,329.335632 
	C164.423920,330.465668 164.232544,330.330322 162.475845,322.417297 
	C161.710251,323.294434 161.092072,324.002655 159.908752,324.527527 
	C159.148010,324.140076 158.952408,323.935913 158.756790,323.731781 
z"/>
<path fill="#E6EDF1" opacity="1.000000" stroke="none" 
	d="
M357.881073,321.988068 
	C357.821564,322.313904 357.857452,322.704346 357.687408,322.955322 
	C356.316589,324.979126 354.906982,326.976715 353.509216,328.982269 
	C352.165039,327.086761 350.480896,325.345703 349.536926,323.268311 
	C345.914490,315.296539 342.529541,307.216888 338.978577,298.998352 
	C341.654755,298.998352 344.850555,298.998352 346.847870,298.998352 
	C349.866760,306.276276 352.731964,313.183685 355.860352,320.671112 
	C356.709351,321.496765 357.295227,321.742432 357.881073,321.988068 
z"/>
<path fill="#E5EDF2" opacity="1.000000" stroke="none" 
	d="
M217.958694,299.803467 
	C213.553925,303.150482 213.710190,306.196960 218.583466,308.548676 
	C221.101501,309.763885 223.830261,310.537598 226.446655,311.554932 
	C230.217133,313.020996 233.325485,315.182526 233.155121,319.748474 
	C232.975632,324.558197 230.650604,327.868500 225.363998,328.734894 
	C225.006592,328.509369 225.027390,328.080292 225.027390,328.080292 
	C229.768082,323.839661 229.256775,320.176025 223.494690,317.728577 
	C221.220093,316.762482 218.831406,316.066803 216.502792,315.225525 
	C212.627823,313.825592 209.701141,311.503204 209.893524,306.993164 
	C210.089172,302.406677 212.829178,299.824005 217.604706,299.144165 
	C217.961563,299.361115 217.958694,299.803467 217.958694,299.803467 
z"/>
<path fill="#3EB8FF" opacity="1.000000" stroke="none" 
	d="
M405.289673,340.002319 
	C401.048523,340.650177 397.152710,341.858246 393.290344,341.759277 
	C388.214050,341.629120 385.232971,337.999664 386.667358,334.109711 
	C387.300476,332.392700 389.628693,330.268250 391.300659,330.165039 
	C395.879883,329.882477 400.612183,330.141174 405.087250,331.101715 
	C406.785095,331.466156 407.945435,334.334930 409.677063,336.103638 
	C408.552185,337.423737 407.101013,338.702423 405.289673,340.002319 
z"/>
<path fill="#E6EDF1" opacity="1.000000" stroke="none" 
	d="
M513.346436,306.563995 
	C513.346436,313.919403 513.346436,321.274811 513.346436,328.825012 
	C511.133087,328.825012 507.855804,328.825012 504.887787,328.825012 
	C506.569733,319.741211 507.177551,310.874817 504.435669,301.395782 
	C506.568329,300.445160 509.079285,299.325958 512.355286,297.865723 
	C512.575317,299.638580 512.740295,300.967621 512.719910,302.950989 
	C512.805176,304.591553 513.075806,305.577759 513.346436,306.563995 
z"/>
<path fill="#E2ECF2" opacity="1.000000" stroke="none" 
	d="
M491.980499,326.991211 
	C483.518616,332.093262 472.898529,329.631866 468.639679,321.793274 
	C465.095337,315.269897 467.701263,303.087616 475.889130,301.049164 
	C472.822601,308.447784 473.276276,315.456665 477.108154,322.120575 
	C480.436829,327.909424 484.772278,329.238739 490.804291,326.347015 
	C491.480713,326.612183 491.715759,326.818604 491.980499,326.991211 
z"/>
<path fill="#E6EDF1" opacity="1.000000" stroke="none" 
	d="
M492.307770,326.902435 
	C491.715759,326.818604 491.480713,326.612183 491.136047,326.182312 
	C495.537567,315.420593 491.709473,304.125763 482.000092,299.447815 
	C490.074310,298.107391 495.965973,300.817078 498.694366,307.125732 
	C501.717438,314.115845 499.395416,321.660492 492.307770,326.902435 
z"/>
<path fill="#E6EDF1" opacity="1.000000" stroke="none" 
	d="
M257.173187,337.729065 
	C259.424530,337.739807 261.514862,337.185547 262.989105,337.900909 
	C264.912079,338.834106 267.857147,341.031158 267.653839,342.222015 
	C267.309662,344.238495 265.138489,346.901306 263.201935,347.467316 
	C260.156342,348.357422 256.508118,348.342316 253.424316,347.532684 
	C251.412338,347.004456 248.850662,344.598114 248.485901,342.664978 
	C247.884552,339.478210 250.351685,337.661285 253.766052,337.745911 
	C254.755997,337.770447 255.747421,337.736053 257.173187,337.729065 
z"/>
<path fill="#E6EDF1" opacity="1.000000" stroke="none" 
	d="
M300.524048,337.732422 
	C304.562164,337.454376 307.456787,338.570984 307.446411,342.622131 
	C307.436340,346.561096 304.594055,347.857788 300.999146,347.799927 
	C298.359131,347.757446 295.684204,347.978912 293.087891,347.622803 
	C289.992920,347.198303 287.872925,345.376587 288.100830,341.950836 
	C288.325928,338.567657 290.674683,337.677948 293.659149,337.730560 
	C295.804932,337.768372 297.952057,337.732819 300.524048,337.732422 
z"/>
<path fill="#E6EDF1" opacity="1.000000" stroke="none" 
	d="
M373.453552,279.651001 
	C375.438293,283.259369 377.707245,286.476654 378.689148,290.047791 
	C379.140656,291.689941 377.471619,295.251892 376.035461,295.723236 
	C374.400604,296.259888 371.394806,294.835632 369.995483,293.326508 
	C368.149475,291.335602 366.835876,288.549683 366.146423,285.884827 
	C365.613953,283.826813 365.605988,280.639008 366.827789,279.420654 
	C367.897461,278.354004 371.004608,279.330566 373.453552,279.651001 
z"/>
<path fill="#EDF0F1" opacity="1.000000" stroke="none" 
	d="
M217.016220,347.776794 
	C215.120239,347.634583 213.146286,348.032166 212.277023,347.231049 
	C210.772903,345.844910 209.092468,343.699646 209.125473,341.902924 
	C209.150925,340.517273 211.536469,338.270782 213.139465,338.002716 
	C216.690720,337.408905 220.428696,337.587921 224.055283,337.883789 
	C227.791687,338.188568 229.288666,341.586426 226.473389,343.938141 
	C224.069305,345.946350 220.493134,346.551392 217.016220,347.776794 
z"/>
<path fill="#EDF0F1" opacity="1.000000" stroke="none" 
	d="
M348.734680,262.986450 
	C349.148315,265.313232 350.097778,268.029785 349.133972,269.357788 
	C348.116211,270.760162 345.310150,271.191345 343.220001,271.403351 
	C340.791199,271.649689 338.076202,271.743805 335.887543,270.882324 
	C333.982483,270.132507 331.718201,268.193970 331.253845,266.364258 
	C330.505951,263.417023 332.688843,261.118225 335.772003,261.226410 
	C340.003815,261.374908 344.211243,262.219360 348.734680,262.986450 
z"/>
<path fill="#EDF0F1" opacity="1.000000" stroke="none" 
	d="
M144.678436,365.955566 
	C142.159973,365.804352 139.222931,366.109589 137.914139,364.794403 
	C136.887390,363.762665 137.688141,360.695099 138.045288,358.594574 
	C138.224884,357.538208 139.183548,356.592285 139.859619,355.646240 
	C142.365234,352.140076 144.786392,348.307739 149.416901,353.339691 
	C149.870667,353.832764 150.883621,353.811279 152.850983,354.378906 
	C149.962158,358.529327 147.461929,362.121429 144.678436,365.955566 
z"/>
<path fill="#EDF0F1" opacity="1.000000" stroke="none" 
	d="
M172.926025,424.002075 
	C168.865585,422.125610 164.566849,420.921722 161.755615,418.188080 
	C159.074005,415.580475 160.722046,412.939087 164.654556,413.035065 
	C168.287521,413.123749 172.059753,413.367432 175.462708,414.482574 
	C177.098938,415.018768 178.948639,417.655212 179.076599,419.456024 
	C179.324936,422.951111 176.616196,424.175140 172.926025,424.002075 
z"/>
<path fill="#DAEAF3" opacity="1.000000" stroke="none" 
	d="
M389.395996,319.940857 
	C388.570618,320.009583 388.154053,320.022491 387.424927,320.038025 
	C387.112518,319.419525 387.363495,318.629974 387.076111,318.201965 
	C380.181793,307.934204 383.450348,300.108154 395.811096,298.557648 
	C396.079803,299.248657 396.049591,299.494568 395.609375,299.750183 
	C393.590210,300.661224 391.221405,301.162140 390.499756,302.531250 
	C386.815887,309.520355 392.205475,318.575531 400.037659,319.033752 
	C400.020538,319.018341 399.986389,318.987335 399.986389,318.987335 
	C396.592529,319.286560 393.198669,319.585815 389.395996,319.940857 
z"/>
<path fill="#E5EDF2" opacity="1.000000" stroke="none" 
	d="
M430.609314,324.674805 
	C427.527130,329.784882 423.155701,331.412842 418.611359,329.415070 
	C414.716797,327.702972 413.398254,324.497467 414.053558,320.469086 
	C414.763214,316.106628 418.977478,313.035095 425.732880,312.163300 
	C421.892975,315.329315 418.063751,318.596069 421.619629,323.211090 
	C422.673615,324.579071 426.485443,323.822144 429.395203,323.885315 
	C429.952423,323.935944 430.147980,324.140106 430.609314,324.674805 
z"/>
<path fill="#E5EDF2" opacity="1.000000" stroke="none" 
	d="
M159.609375,324.674683 
	C156.527222,329.784821 152.155853,331.412811 147.611435,329.415131 
	C143.716751,327.703125 142.398376,324.497467 143.053543,320.469147 
	C143.763016,316.106750 147.977371,313.035187 154.732925,312.163269 
	C150.892975,315.329315 147.063797,318.596039 150.619568,323.211060 
	C151.673553,324.579071 155.485413,323.822144 158.395157,323.885345 
	C158.952408,323.935913 159.148010,324.140076 159.609375,324.674683 
z"/>
<path fill="#E5EDF2" opacity="1.000000" stroke="none" 
	d="
M396.019379,299.740479 
	C396.049591,299.494568 396.079803,299.248657 396.157776,298.633057 
	C397.125916,298.343475 398.046234,298.423615 399.615173,298.799377 
	C401.166168,299.400269 402.068604,299.705475 402.971039,300.010712 
	C410.689392,304.580109 410.303925,312.498444 401.572327,318.269135 
	C400.928314,318.035339 400.789703,317.894958 400.801270,317.381470 
	C403.452209,310.040100 401.794342,304.235687 396.019379,299.740479 
z"/>
<path fill="#E6EDF1" opacity="1.000000" stroke="none" 
	d="
M365.642761,323.798401 
	C366.659058,321.919098 367.242523,319.431610 368.804932,318.319580 
	C370.620544,317.027435 373.561371,316.066528 375.496063,316.657318 
	C376.667999,317.015228 377.795410,320.857178 377.276642,322.652344 
	C376.441376,325.542969 374.229065,328.035736 372.236725,330.530396 
	C369.797546,328.175659 367.720154,325.987030 365.642761,323.798401 
z"/>
<path fill="#EDF0F1" opacity="1.000000" stroke="none" 
	d="
M297.938629,270.861725 
	C294.151123,271.505859 291.511505,270.218018 291.467529,266.129333 
	C291.427124,262.369202 294.021301,261.043060 297.484802,261.087677 
	C299.644409,261.115540 301.804260,261.125458 304.468811,261.553772 
	C304.973755,262.647034 304.973877,263.329926 304.989746,264.008026 
	C305.005524,264.003235 305.018646,263.973083 304.781097,264.076294 
	C304.352936,264.460022 304.162292,264.740540 303.988098,265.012787 
	C304.004486,265.004486 304.021057,264.971649 303.783081,265.074585 
	C303.354279,265.458252 303.163391,265.738953 302.989197,266.012848 
	C303.005829,266.006042 303.023499,265.974701 302.724518,266.084167 
	C302.102875,266.469757 301.780212,266.745911 301.381653,267.091309 
	C301.305786,267.160553 301.021912,267.457428 300.799713,267.687378 
	C300.376740,268.285858 300.175934,268.654358 299.989746,269.013855 
	C300.004395,269.004822 300.011993,268.971283 299.741516,269.072876 
	C298.960205,269.736877 298.449432,270.299286 297.938629,270.861725 
z"/>
<path fill="#EDF0F1" opacity="1.000000" stroke="none" 
	d="
M258.452332,261.320709 
	C260.778748,261.243591 263.104675,261.134735 265.431732,261.096985 
	C268.675293,261.044403 271.121155,262.307617 271.291290,265.809418 
	C271.454529,269.168823 269.715485,271.134583 265.568909,270.657471 
	C264.682648,270.234680 264.332855,270.106415 263.992188,269.989624 
	C264.001312,270.001160 264.020538,270.023346 263.961243,269.755310 
	C263.593842,269.318329 263.285706,269.149384 262.988403,268.990570 
	C262.999207,269.000732 263.019897,269.022034 262.981750,268.740112 
	C262.621582,268.298737 262.299530,268.139282 261.988342,267.990356 
	C261.999176,268.000885 262.019928,268.022827 261.958740,267.755371 
	C261.589966,267.318024 261.282379,267.148102 260.986755,266.989685 
	C260.998749,267.001160 261.021942,267.024933 260.969849,266.751648 
	C260.603790,266.311737 260.289825,266.145142 259.987457,265.989716 
	C259.999084,266.000916 260.021515,266.024139 259.966766,265.751343 
	C259.599731,265.311798 259.287476,265.145020 258.987000,264.989746 
	C258.998810,265.001221 259.021667,265.024963 258.962036,264.756561 
	C258.593903,264.318787 258.285400,264.149414 257.987122,263.989349 
	C257.997284,263.998688 258.016571,264.018402 258.107361,263.688171 
	C258.282898,262.678894 258.367615,261.999786 258.452332,261.320709 
z"/>
<path fill="#E6EDF1" opacity="1.000000" stroke="none" 
	d="
M146.024353,402.069489 
	C142.534332,405.946136 139.377884,406.021301 137.206177,401.793457 
	C135.432877,398.341187 134.460754,394.477386 133.501160,390.458008 
	C134.255112,390.084595 134.641312,390.049255 135.014725,390.004944 
	C135.001923,389.995941 134.978439,389.975220 135.042633,390.241577 
	C135.412704,390.678925 135.718597,390.849945 136.012924,391.009827 
	C136.001343,390.998688 135.979080,390.975464 136.041473,391.242249 
	C136.410858,391.679718 136.717865,391.850403 137.013123,392.009888 
	C137.001389,391.998627 136.978821,391.975250 137.042252,392.240845 
	C137.412216,392.678253 137.718750,392.850037 138.013306,393.010254 
	C138.001328,392.998718 137.978180,392.974762 138.044342,393.240082 
	C138.415146,393.677185 138.719788,393.848969 139.012878,394.009705 
	C139.001358,393.998657 138.979248,393.975647 139.040833,394.242096 
	C139.410049,394.679626 139.717682,394.850708 140.013321,395.010254 
	C140.001343,394.998688 139.978165,394.974762 140.044556,395.239777 
	C140.415634,395.677002 140.720352,395.849213 141.013245,396.010010 
	C141.001419,395.998596 140.978638,395.974915 141.043854,396.239960 
	C141.414413,396.677094 141.719757,396.849182 142.013275,397.009949 
	C142.001450,396.998596 141.978653,396.975037 142.041168,397.241577 
	C142.410858,397.679260 142.718033,397.850433 143.013275,398.010132 
	C143.001358,397.998657 142.978348,397.974792 143.044495,398.240082 
	C143.415314,398.677216 143.720001,398.849030 144.013062,399.009705 
	C144.001419,398.998596 143.979111,398.975372 144.041214,399.241516 
	C144.410675,399.679047 144.718018,399.850403 145.013947,400.010437 
	C145.002548,399.999084 144.980942,399.975281 144.977020,400.283325 
	C145.323517,401.084045 145.673935,401.576782 146.024353,402.069489 
z"/>
<path fill="#C8E4F4" opacity="1.000000" stroke="none" 
	d="
M272.007294,294.456238 
	C272.639496,294.372711 273.227997,294.756866 273.879272,295.407410 
	C273.922882,302.974823 273.643951,310.288300 273.992889,317.571686 
	C274.170471,321.278107 275.477325,324.930450 276.309540,328.772583 
	C275.019623,328.772583 272.677063,328.772583 271.463531,328.772583 
	C271.632385,317.343506 271.797974,306.133728 272.007294,294.456238 
z"/>
<path fill="#E6EDF1" opacity="1.000000" stroke="none" 
	d="
M188.127686,344.202026 
	C186.417145,345.396667 184.837036,347.267975 182.965744,347.628693 
	C180.096619,348.181671 177.027039,347.694672 173.649261,347.265686 
	C173.279922,346.549072 173.196991,346.244873 173.003632,345.985962 
	C173.000092,346.002136 172.969757,346.015625 173.305115,346.007507 
	C174.098618,345.322845 174.556778,344.646332 175.008942,343.986420 
	C175.002945,344.003021 174.971481,344.019073 175.245728,343.966858 
	C175.686295,343.600250 175.852631,343.285889 176.011032,342.987244 
	C176.003098,343.002991 175.969894,343.014984 176.304169,343.002472 
	C177.097610,342.316528 177.556763,341.643097 178.008972,340.985840 
	C178.002045,341.002045 177.969666,341.015930 178.304123,341.005249 
	C179.097351,340.319672 179.556137,339.644775 180.009827,338.985809 
	C180.004761,339.001709 179.974258,339.015350 180.378723,339.061279 
	C181.865112,339.071564 182.947037,339.035950 184.028976,339.000305 
	C184.028976,339.000336 183.991547,339.010498 183.989990,339.335327 
	C185.368195,341.174133 186.747940,342.688080 188.127686,344.202026 
z"/>
<path fill="#C8E4F4" opacity="1.000000" stroke="none" 
	d="
M358.117340,321.728943 
	C357.295227,321.742432 356.709351,321.496765 355.994446,321.047668 
	C359.323578,313.897705 363.640625,307.205872 362.511932,298.620178 
	C364.135132,298.620178 365.887573,298.620178 367.651611,298.620178 
	C364.510223,306.340057 361.431915,313.904938 358.117340,321.728943 
z"/>
<path fill="#EDF0F1" opacity="1.000000" stroke="none" 
	d="
M333.813507,338.000854 
	C336.259033,337.908020 338.705475,337.834473 341.149841,337.717377 
	C344.072479,337.577362 346.442902,338.355743 346.883484,341.650452 
	C347.287720,344.673523 346.090454,346.747223 342.251709,346.874573 
	C340.786041,346.040192 339.884766,345.507751 338.988983,344.990906 
	C338.994446,345.006500 339.024261,345.020844 338.961487,344.754944 
	C338.592712,344.318176 338.286743,344.147339 337.987091,343.991638 
	C337.993408,344.006744 338.024048,344.018402 337.977295,343.742493 
	C337.614807,343.303284 337.299042,343.139984 336.988281,342.991577 
	C336.993347,343.006500 337.023010,343.017090 336.965759,342.747192 
	C336.598755,342.310120 336.289001,342.142944 335.986145,341.991089 
	C335.993011,342.006378 336.023956,342.019379 335.996613,341.695251 
	C335.306549,340.906097 334.643829,340.441071 333.986633,339.991394 
	C333.992157,340.006683 334.021271,340.021240 334.046814,339.681030 
	C333.986053,338.894165 333.899780,338.447510 333.813507,338.000854 
z"/>
<path fill="#E6EDF1" opacity="1.000000" stroke="none" 
	d="
M133.898071,388.704193 
	C137.166367,385.173920 140.637848,385.083099 142.407944,388.797211 
	C144.144745,392.441528 145.327393,396.349915 146.490234,400.346619 
	C145.811783,400.358978 145.396362,400.167114 144.980942,399.975281 
	C144.980942,399.975281 145.002548,399.999084 144.911499,399.772705 
	C144.540009,399.355988 144.259567,399.165680 143.979126,398.975372 
	C143.979111,398.975372 144.001419,398.998596 143.910400,398.772217 
	C143.539047,398.355499 143.258682,398.165161 142.978333,397.974792 
	C142.978348,397.974792 143.001358,397.998657 142.912552,397.771057 
	C142.542053,397.353943 142.260361,397.164490 141.978653,396.975037 
	C141.978653,396.975037 142.001450,396.998596 141.908920,396.773651 
	C141.537140,396.357422 141.257889,396.166168 140.978638,395.974915 
	C140.978638,395.974915 141.001419,395.998596 140.911743,395.771332 
	C140.540771,395.354309 140.259476,395.164520 139.978165,394.974762 
	C139.978165,394.974762 140.001343,394.998688 139.911972,394.771667 
	C139.541489,394.354980 139.260361,394.165314 138.979248,393.975647 
	C138.979248,393.975647 139.001358,393.998657 138.911804,393.770996 
	C138.540894,393.353821 138.259537,393.164276 137.978180,392.974762 
	C137.978180,392.974762 138.001328,392.998718 137.911926,392.771667 
	C137.541306,392.354828 137.260071,392.165039 136.978821,391.975250 
	C136.978821,391.975250 137.001389,391.998627 136.911667,391.771545 
	C136.541000,391.354767 136.260040,391.165100 135.979080,390.975464 
	C135.979080,390.975464 136.001343,390.998688 135.914185,390.769257 
	C135.544174,390.351624 135.261307,390.163422 134.978439,389.975220 
	C134.978439,389.975220 135.001923,389.995941 134.891266,389.738434 
	C134.486435,389.222015 134.192245,388.963104 133.898071,388.704193 
z"/>
<path fill="#DAEAF3" opacity="1.000000" stroke="none" 
	d="
M513.591064,306.303711 
	C513.075806,305.577759 512.805176,304.591553 512.685059,303.339935 
	C516.347412,301.408051 519.746460,299.357056 523.430176,298.276794 
	C524.779053,297.881256 526.802856,299.787659 528.518799,300.643921 
	C526.790833,301.834503 525.198975,303.671021 523.304382,304.070068 
	C520.157959,304.732727 516.118835,300.843170 513.591064,306.303711 
z"/>
<path fill="#DAEAF3" opacity="1.000000" stroke="none" 
	d="
M121.481323,329.838501 
	C121.558510,329.352966 122.076111,328.939667 122.766464,328.347534 
	C130.080444,328.298401 134.838852,324.750671 137.600845,317.878448 
	C140.051147,324.051117 138.669342,327.405762 133.245041,328.571777 
	C129.545639,329.367035 125.701279,329.488159 121.481323,329.838501 
z"/>
<path fill="#DAEAF3" opacity="1.000000" stroke="none" 
	d="
M224.616348,328.062744 
	C225.027390,328.080292 225.006592,328.509369 224.998093,328.723999 
	C220.528046,328.520905 215.788773,328.848755 211.734222,327.338440 
	C209.979248,326.684723 209.636810,322.238953 209.405365,319.014221 
	C213.778839,323.404480 216.968811,329.017212 224.616348,328.062744 
z"/>
<path fill="#E6EDF1" opacity="1.000000" stroke="none" 
	d="
M339.437805,347.631836 
	C337.314087,347.684631 335.182220,347.879578 333.068542,347.757843 
	C329.675781,347.562408 327.447418,346.070526 328.250183,341.693176 
	C330.466980,340.786041 332.244141,340.403625 334.021271,340.021240 
	C334.021271,340.021240 333.992157,340.006683 334.054993,340.294495 
	C334.753204,341.061340 335.388580,341.540375 336.023956,342.019379 
	C336.023956,342.019379 335.993011,342.006378 336.074585,342.238953 
	C336.445129,342.653351 336.734070,342.835205 337.023010,343.017090 
	C337.023010,343.017090 336.993347,343.006500 337.060852,343.249817 
	C337.426910,343.668243 337.725494,343.843323 338.024048,344.018402 
	C338.024048,344.018402 337.993408,344.006744 338.079773,344.235840 
	C338.452209,344.650269 338.738220,344.835541 339.024261,345.020844 
	C339.024261,345.020844 338.994446,345.006500 339.010803,345.326935 
	C339.164032,346.308868 339.300903,346.970337 339.437805,347.631836 
z"/>
<path fill="#DAEAF3" opacity="1.000000" stroke="none" 
	d="
M125.022873,286.170074 
	C126.827698,286.346771 128.658188,286.387787 130.432922,286.723541 
	C138.336380,288.218964 138.569794,288.590363 137.668777,296.272339 
	C133.821167,293.645386 129.759689,290.872437 125.351669,287.707458 
	C125.011055,286.933655 125.016968,286.551880 125.022873,286.170074 
z"/>
<path fill="#EDF0F1" opacity="1.000000" stroke="none" 
	d="
M365.369568,324.013184 
	C367.720154,325.987030 369.797546,328.175659 371.945007,330.703308 
	C370.079437,334.248322 367.432465,334.832153 364.692383,332.391296 
	C361.698303,329.724152 362.767975,326.847168 365.369568,324.013184 
z"/>
<path fill="#DAEAF3" opacity="1.000000" stroke="none" 
	d="
M402.896637,299.616394 
	C402.068604,299.705475 401.166168,299.400269 399.938782,298.935150 
	C402.849121,296.922272 405.969116,294.785797 409.391876,293.393799 
	C410.383484,292.990540 412.243195,294.721802 413.704895,295.474548 
	C412.303131,296.649841 411.068726,298.366394 409.457581,298.864624 
	C407.405182,299.499268 405.048035,299.148224 402.896637,299.616394 
z"/>
<path fill="#EDF0F1" opacity="1.000000" stroke="none" 
	d="
M171.885132,346.831970 
	C171.066101,344.932312 169.197266,342.653564 169.709610,341.234619 
	C170.274368,339.670471 172.919159,338.618042 174.861511,337.875092 
	C176.148468,337.382843 177.793533,337.826813 179.621292,338.188354 
	C179.964310,338.525116 179.974258,339.015350 179.974258,339.015350 
	C179.974258,339.015350 180.004761,339.001709 179.742630,339.115967 
	C178.976898,339.825470 178.473282,340.420715 177.969666,341.015930 
	C177.969666,341.015930 178.002045,341.002045 177.737823,341.107544 
	C176.972351,341.813690 176.471115,342.414337 175.969879,343.014984 
	C175.969894,343.014984 176.003098,343.002991 175.770172,343.086121 
	C175.348663,343.452545 175.160080,343.735809 174.971481,344.019073 
	C174.971481,344.019073 175.002945,344.003021 174.741760,344.116638 
	C173.976959,344.825378 173.473358,345.420502 172.969757,346.015625 
	C172.969757,346.015625 173.000092,346.002136 172.779755,346.076233 
	C172.269730,346.313293 172.044968,346.540527 171.885132,346.831970 
z"/>
<path fill="#E5EDF2" opacity="1.000000" stroke="none" 
	d="
M215.467087,371.983643 
	C213.126297,369.643158 210.785507,367.302704 208.314865,364.301514 
	C208.129578,362.753357 208.074127,361.865936 208.008148,360.989746 
	C207.997604,361.001038 207.972794,361.019379 208.344467,360.976440 
	C209.281189,360.453796 209.846237,359.974121 210.411285,359.494446 
	C212.885773,363.409607 215.360260,367.324738 217.442993,371.558472 
	C216.523178,371.912567 215.995132,371.948090 215.467087,371.983643 
z"/>
<path fill="#E6EDF1" opacity="1.000000" stroke="none" 
	d="
M176.114166,392.030273 
	C175.104233,388.296661 174.094315,384.563110 173.439850,380.452271 
	C174.207230,380.054382 174.619156,380.033783 175.031067,380.013153 
	C175.031067,380.013153 174.997253,380.001312 175.065277,380.243835 
	C175.431931,380.664703 175.730576,380.843109 176.029221,381.021484 
	C176.029221,381.021484 175.996185,381.003815 176.064667,381.245117 
	C176.431839,381.664795 176.730530,381.843140 177.029221,382.021484 
	C177.029221,382.021484 176.996185,382.003815 177.064789,382.245056 
	C177.432007,382.664673 177.730621,382.843079 178.029236,383.021484 
	C178.029236,383.021484 177.996201,383.003815 178.064789,383.245056 
	C178.432007,383.664703 178.730621,383.843079 179.029236,384.021423 
	C179.029236,384.021423 178.996185,384.003784 179.064178,384.245392 
	C179.431198,384.665100 179.730209,384.843231 180.029221,385.021362 
	C180.029221,385.021362 179.996185,385.003815 180.062927,385.246338 
	C180.429489,385.666321 180.729324,385.843781 181.029160,386.021240 
	C181.029160,386.021240 180.999008,386.005920 180.888672,386.326233 
	C180.513428,387.774628 180.248535,388.902710 179.983627,390.030823 
	C179.983627,390.030823 180.000793,389.999390 179.708527,389.983704 
	C178.934235,390.318085 178.452209,390.668182 177.970184,391.018250 
	C177.970169,391.018250 177.989822,390.989349 177.751831,391.083801 
	C177.047272,391.462280 176.580719,391.746277 176.114166,392.030273 
z"/>
<path fill="#C8E4F4" opacity="1.000000" stroke="none" 
	d="
M218.380432,299.822144 
	C217.958694,299.803467 217.961563,299.361115 217.977951,299.140472 
	C221.993500,299.002747 226.128479,298.536316 229.916595,299.472870 
	C231.205521,299.791534 231.620895,303.643555 231.736984,306.445587 
	C227.730469,303.114685 224.681717,298.658508 218.380432,299.822144 
z"/>
<path fill="#E6EDF1" opacity="1.000000" stroke="none" 
	d="
M301.021912,267.457428 
	C301.021912,267.457428 301.305786,267.160553 301.717072,267.037201 
	C302.426758,266.600800 302.725128,266.287750 303.023499,265.974701 
	C303.023499,265.974701 303.005829,266.006042 303.249084,265.939453 
	C303.668549,265.572479 303.844818,265.272064 304.021057,264.971649 
	C304.021057,264.971649 304.004486,265.004486 304.247894,264.939545 
	C304.667084,264.574097 304.842865,264.273590 305.018646,263.973083 
	C305.018646,263.973083 305.005524,264.003235 305.335663,264.065887 
	C307.373932,265.147003 309.082031,266.165436 310.790161,267.183899 
	C309.175903,272.912445 304.461884,270.606995 300.406067,270.650085 
	C300.009857,269.832489 300.010925,269.401886 300.011993,268.971283 
	C300.011993,268.971283 300.004395,269.004822 300.296814,268.865997 
	C300.733429,268.303925 300.877686,267.880676 301.021912,267.457428 
z"/>
<path fill="#EDF0F1" opacity="1.000000" stroke="none" 
	d="
M263.888855,270.860992 
	C259.985168,270.592743 255.627319,272.761932 252.523163,268.170532 
	C252.753494,267.073273 252.886536,266.530548 253.019562,265.987823 
	C253.019562,265.987823 253.020660,266.013428 253.355408,266.014465 
	C255.132294,265.349792 256.574432,264.684082 258.016571,264.018402 
	C258.016571,264.018402 257.997284,263.998688 258.082397,264.232117 
	C258.452240,264.652008 258.736938,264.838501 259.021667,265.024963 
	C259.021667,265.024963 258.998810,265.001221 259.072815,265.240112 
	C259.438354,265.660706 259.729950,265.842407 260.021515,266.024139 
	C260.021515,266.024139 259.999084,266.000916 260.072845,266.240234 
	C260.438385,266.661346 260.730164,266.843140 261.021942,267.024933 
	C261.021942,267.024933 260.998749,267.001160 261.083130,267.231750 
	C261.451630,267.649170 261.735779,267.835999 262.019928,268.022827 
	C262.019928,268.022827 261.999176,268.000885 262.057800,268.251343 
	C262.417603,268.675232 262.718750,268.848633 263.019897,269.022034 
	C263.019897,269.022034 262.999207,269.000732 263.081940,269.234314 
	C263.449951,269.653076 263.735260,269.838196 264.020538,270.023346 
	C264.020538,270.023346 264.001312,270.001160 263.952606,270.208649 
	C263.903900,270.416138 263.888855,270.860992 263.888855,270.860992 
z"/>
<path fill="#E2ECF2" opacity="1.000000" stroke="none" 
	d="
M298.066864,288.527405 
	C297.787537,287.763916 297.767639,287.213562 297.747742,286.663239 
	C299.888458,286.663239 302.029205,286.663239 304.243378,286.663239 
	C303.519012,289.970551 302.853912,293.007355 302.037720,296.734131 
	C300.586609,293.608795 299.456451,291.174683 298.066864,288.527405 
z"/>
<path fill="#E6EDF1" opacity="1.000000" stroke="none" 
	d="
M205.975967,360.474091 
	C204.129532,359.301941 202.283096,358.129791 200.303345,356.358032 
	C200.132980,355.236664 200.095932,354.714813 200.058868,354.192993 
	C203.210785,355.583191 206.362717,356.973419 209.440262,358.804718 
	C208.901520,359.837006 208.437149,360.428192 207.972794,361.019379 
	C207.972794,361.019379 207.997604,361.001038 207.654053,360.961731 
	C206.865646,360.773010 206.420807,360.623566 205.975967,360.474091 
z"/>
<path fill="#C8E4F4" opacity="1.000000" stroke="none" 
	d="
M124.588722,286.103210 
	C125.016968,286.551880 125.011055,286.933655 125.010437,287.601807 
	C121.264252,288.535156 117.512764,289.182159 113.386551,289.924133 
	C112.760231,289.741577 112.508636,289.464050 112.031174,289.017273 
	C115.921730,287.910828 120.038147,286.973602 124.588722,286.103210 
z"/>
<path fill="#B6B8B9" opacity="1.000000" stroke="none" 
	d="
M258.107361,263.688171 
	C256.574432,264.684082 255.132294,265.349792 253.343231,266.018433 
	C252.951324,262.882721 254.307571,261.093658 258.044189,261.262451 
	C258.367615,261.999786 258.282898,262.678894 258.107361,263.688171 
z"/>
<path fill="#B6B8B9" opacity="1.000000" stroke="none" 
	d="
M188.320312,343.911469 
	C186.747940,342.688080 185.368195,341.174133 183.993042,339.316223 
	C187.129120,338.942078 188.978165,340.157562 188.320312,343.911469 
z"/>
<path fill="#B6B8B9" opacity="1.000000" stroke="none" 
	d="
M310.853180,266.796997 
	C309.082031,266.165436 307.373932,265.147003 305.319885,264.070679 
	C304.973877,263.329926 304.973755,262.647034 304.908325,261.626770 
	C308.253357,261.352600 310.541565,262.746613 310.853180,266.796997 
z"/>
<path fill="#B6B8B9" opacity="1.000000" stroke="none" 
	d="
M334.046814,339.681030 
	C332.244141,340.403625 330.466980,340.786041 328.371033,341.328430 
	C328.348633,338.215973 330.535339,337.608521 333.545044,337.891846 
	C333.899780,338.447510 333.986053,338.894165 334.046814,339.681030 
z"/>
<path fill="#B6B8B9" opacity="1.000000" stroke="none" 
	d="
M339.693970,347.693054 
	C339.300903,346.970337 339.164032,346.308868 339.005341,345.311340 
	C339.884766,345.507751 340.786041,346.040192 341.865265,346.848999 
	C341.345551,347.334991 340.647858,347.544647 339.693970,347.693054 
z"/>
<path fill="#E2ECF2" opacity="1.000000" stroke="none" 
	d="
M302.578522,317.472900 
	C301.859222,317.676727 301.129578,317.479370 300.220001,317.068604 
	C300.882751,316.927399 301.725494,316.999542 302.578522,317.472900 
z"/>
<path fill="#B6B8B9" opacity="1.000000" stroke="none" 
	d="
M180.378723,339.061279 
	C179.974258,339.015350 179.964310,338.525116 179.975800,338.280212 
	C181.207642,338.143524 182.427994,338.251740 183.838654,338.680115 
	C182.947037,339.035950 181.865112,339.071564 180.378723,339.061279 
z"/>
<path fill="#3EB8FF" opacity="1.000000" stroke="none" 
	d="
M427.235229,311.634827 
	C427.389557,311.454651 427.578522,311.410614 427.767456,311.366577 
	C427.601593,311.501373 427.435699,311.636200 427.235229,311.634827 
z"/>
<path fill="#B6B8B9" opacity="1.000000" stroke="none" 
	d="
M199.715652,354.109558 
	C200.095932,354.714813 200.132980,355.236664 200.093109,356.145630 
	C199.432648,355.877930 198.849091,355.223053 198.113922,354.277771 
	C198.432358,354.000305 198.902405,354.013214 199.715652,354.109558 
z"/>
<path fill="#B6B8B9" opacity="1.000000" stroke="none" 
	d="
M176.190094,392.365204 
	C176.580719,391.746277 177.047272,391.462280 177.767456,391.076019 
	C177.714737,391.644226 177.408401,392.314697 176.854141,393.140991 
	C176.492828,393.097931 176.379425,392.899017 176.190094,392.365204 
z"/>
<path fill="#3EB8FF" opacity="1.000000" stroke="none" 
	d="
M156.764771,311.365204 
	C156.610413,311.545410 156.421463,311.589417 156.232529,311.633423 
	C156.398422,311.498627 156.564301,311.363800 156.764771,311.365204 
z"/>
<path fill="#B6B8B9" opacity="1.000000" stroke="none" 
	d="
M208.344467,360.976440 
	C208.437149,360.428192 208.901520,359.837006 209.604218,359.089478 
	C209.842545,358.933136 210.179810,359.158478 210.295547,359.326477 
	C209.846237,359.974121 209.281189,360.453796 208.344467,360.976440 
z"/>
<path fill="#B6B8B9" opacity="1.000000" stroke="none" 
	d="
M215.708771,372.200378 
	C215.995132,371.948090 216.523178,371.912567 217.446381,371.928406 
	C217.896729,372.437500 217.951920,372.895233 217.971497,373.698425 
	C217.274078,373.501617 216.612274,372.959351 215.708771,372.200378 
z"/>
<path fill="#B6B8B9" opacity="1.000000" stroke="none" 
	d="
M174.916519,379.750244 
	C174.619156,380.033783 174.207230,380.054382 173.485641,380.043213 
	C173.130783,379.558868 173.085602,379.106293 173.078064,378.313263 
	C173.677795,378.477631 174.239883,378.982483 174.916519,379.750244 
z"/>
<path fill="#B6B8B9" opacity="1.000000" stroke="none" 
	d="
M144.977020,400.283325 
	C145.396362,400.167114 145.811783,400.358978 146.400238,400.705627 
	C146.600937,401.179230 146.520752,401.468109 146.178558,401.898315 
	C145.673935,401.576782 145.323517,401.084045 144.977020,400.283325 
z"/>
<path fill="#B6B8B9" opacity="1.000000" stroke="none" 
	d="
M299.741516,269.072876 
	C300.010925,269.401886 300.009857,269.832489 299.964355,270.584412 
	C299.478943,270.929565 299.037964,270.953430 298.267822,270.919495 
	C298.449432,270.299286 298.960205,269.736877 299.741516,269.072876 
z"/>
<path fill="#B6B8B9" opacity="1.000000" stroke="none" 
	d="
M133.722519,388.887329 
	C134.192245,388.963104 134.486435,389.222015 134.904068,389.747437 
	C134.641312,390.049255 134.255112,390.084595 133.579361,390.072815 
	C133.375534,389.707275 133.461258,389.388885 133.722519,388.887329 
z"/>
<path fill="#B6B8B9" opacity="1.000000" stroke="none" 
	d="
M172.073807,346.984314 
	C172.044968,346.540527 172.269730,346.313293 172.783295,346.060028 
	C173.196991,346.244873 173.279922,346.549072 173.222961,347.118286 
	C172.854477,347.393860 172.545334,347.321320 172.073807,346.984314 
z"/>
<path fill="#3BB7FF" opacity="1.000000" stroke="none" 
	d="
M326.878540,309.052246 
	C327.072418,309.026245 327.002380,309.500214 327.036682,309.737274 
	C326.942230,309.675629 326.813446,309.376923 326.878540,309.052246 
z"/>
<path fill="#3BB7FF" opacity="1.000000" stroke="none" 
	d="
M478.922577,299.955780 
	C479.049408,299.659821 479.176239,299.363831 479.303070,299.067871 
	C479.302277,299.320343 479.301453,299.572815 479.143799,299.917145 
	C478.987000,300.009003 478.922577,299.955780 478.922577,299.955780 
z"/>
<path fill="#B6B8B9" opacity="1.000000" stroke="none" 
	d="
M252.730942,266.116211 
	C252.886536,266.530548 252.753494,267.073273 252.413940,267.820831 
	C252.285721,267.431976 252.364029,266.838318 252.730942,266.116211 
z"/>
<path fill="#EDF0F1" opacity="1.000000" stroke="none" 
	d="
M160.548340,420.467957 
	C160.519867,420.471191 160.576828,420.464752 160.548340,420.467957 
z"/>
<path fill="#3BB7FF" opacity="1.000000" stroke="none" 
	d="
M479.014709,300.040283 
	C479.042419,300.071564 478.812805,300.296722 478.812805,300.296722 
	C478.812805,300.296722 478.789459,300.060944 478.856018,300.008362 
	C478.922577,299.955780 478.987000,300.009003 479.014709,300.040283 
z"/>
<path fill="#B6B8B9" opacity="1.000000" stroke="none" 
	d="
M264.266418,270.884583 
	C263.888855,270.860992 263.903900,270.416138 263.943481,270.197144 
	C264.332855,270.106415 264.682648,270.234680 265.214020,270.592468 
	C265.145081,270.850677 264.894531,270.879425 264.266418,270.884583 
z"/>
<path fill="#3BB7FF" opacity="1.000000" stroke="none" 
	d="
M476.508911,299.512146 
	C476.487061,299.520813 476.530762,299.503448 476.508911,299.512146 
z"/>
<path fill="#DAEAF3" opacity="1.000000" stroke="none" 
	d="
M401.252686,318.406128 
	C401.123718,318.750244 400.808960,318.864014 400.240295,318.982544 
	C399.986389,318.987335 400.020538,319.018341 399.916809,318.768585 
	C400.092468,318.264069 400.371796,318.009308 400.651123,317.754547 
	C400.789703,317.894958 400.928314,318.035339 401.252686,318.406128 
z"/>
<path fill="#3BB7FF" opacity="1.000000" stroke="none" 
	d="
M226.965820,240.074432 
	C224.892014,233.882599 221.874222,228.423721 222.939590,221.791306 
	C224.011108,215.120819 229.363785,210.427505 236.609406,210.762878 
	C243.325378,211.073746 247.694611,215.908340 248.052063,222.666214 
	C248.721603,235.324814 241.717682,244.952515 235.656082,256.113495 
	C232.512558,250.387665 229.785797,245.420990 226.965820,240.074432 
z"/>
<path fill="#3BB7FF" opacity="1.000000" stroke="none" 
	d="
M183.721863,384.899109 
	C183.461823,382.935638 183.085800,380.979553 182.960693,379.007538 
	C182.191376,366.880707 190.243866,360.896027 202.218964,365.351959 
	C203.128220,365.867157 203.540588,366.051422 203.952972,366.235687 
	C208.868896,371.417328 209.481522,377.630249 207.166870,383.885895 
	C204.105988,392.158386 200.334671,400.168030 196.868698,408.290649 
	C196.232040,408.232971 195.595367,408.175293 194.958710,408.117615 
	C192.157059,402.932343 189.355408,397.747040 186.304443,391.986084 
	C185.702606,390.930756 185.350082,390.451080 184.997559,389.971405 
	C184.997559,389.971405 184.986389,390.008789 185.007874,389.627411 
	C184.593536,387.797058 184.157700,386.348083 183.721863,384.899109 
z"/>
<path fill="#B6B8B9" opacity="1.000000" stroke="none" 
	d="
M183.469330,385.064178 
	C184.157700,386.348083 184.593536,387.797058 185.027374,389.626160 
	C183.547043,389.922729 182.068741,389.839172 180.287018,389.893250 
	C180.248535,388.902710 180.513428,387.774628 180.882629,386.310425 
	C181.730209,385.725983 182.473495,385.477631 183.469330,385.064178 
z"/>
<path fill="#B6B8B9" opacity="1.000000" stroke="none" 
	d="
M205.857971,360.829132 
	C206.420807,360.623566 206.865646,360.773010 207.664597,360.950470 
	C208.074127,361.865936 208.129578,362.753357 208.103943,364.081787 
	C207.264511,364.390808 206.506134,364.258820 205.359436,364.072327 
	C205.227417,363.073242 205.483688,362.128723 205.857971,360.829132 
z"/>
<path fill="#B6B8B9" opacity="1.000000" stroke="none" 
	d="
M204.185852,366.005371 
	C203.540588,366.051422 203.128220,365.867157 202.593979,365.513641 
	C203.141968,364.966919 203.811829,364.589447 204.750366,364.091278 
	C204.818954,364.572083 204.618835,365.173553 204.185852,366.005371 
z"/>
<path fill="#B6B8B9" opacity="1.000000" stroke="none" 
	d="
M184.981216,390.287903 
	C185.350082,390.451080 185.702606,390.930756 186.097778,391.723328 
	C185.748566,391.558960 185.356720,391.081696 184.981216,390.287903 
z"/>
<path fill="#B6B8B9" opacity="1.000000" stroke="none" 
	d="
M178.278336,391.038574 
	C178.452209,390.668182 178.934235,390.318085 179.725128,389.976959 
	C179.551483,390.343597 179.068985,390.701263 178.278336,391.038574 
z"/>
<path fill="#B6B8B9" opacity="1.000000" stroke="none" 
	d="
M179.913254,384.793030 
	C179.730209,384.843231 179.431198,384.665100 179.055359,384.228882 
	C179.251450,384.168762 179.524368,384.366760 179.913254,384.793030 
z"/>
<path fill="#B6B8B9" opacity="1.000000" stroke="none" 
	d="
M180.914597,385.791809 
	C180.729324,385.843781 180.429489,385.666321 180.054138,385.229858 
	C180.252411,385.168030 180.526215,385.365204 180.914597,385.791809 
z"/>
<path fill="#B6B8B9" opacity="1.000000" stroke="none" 
	d="
M178.912994,383.793274 
	C178.730621,383.843079 178.432007,383.664703 178.055939,383.228577 
	C178.251236,383.168915 178.524002,383.367035 178.912994,383.793274 
z"/>
<path fill="#B6B8B9" opacity="1.000000" stroke="none" 
	d="
M175.913452,380.792969 
	C175.730576,380.843109 175.431931,380.664703 175.055862,380.228577 
	C175.251526,380.168671 175.524612,380.366577 175.913452,380.792969 
z"/>
<path fill="#B6B8B9" opacity="1.000000" stroke="none" 
	d="
M176.913406,381.793030 
	C176.730530,381.843140 176.431839,381.664795 176.055801,381.228638 
	C176.251495,381.168701 176.524551,381.366638 176.913406,381.793030 
z"/>
<path fill="#B6B8B9" opacity="1.000000" stroke="none" 
	d="
M177.913177,382.793213 
	C177.730621,382.843079 177.432007,382.664673 177.055939,382.228516 
	C177.251373,382.168823 177.524261,382.366852 177.913177,382.793213 
z"/>
<path fill="#3EB8FF" opacity="1.000000" stroke="none" 
	d="
M254.325043,300.576111 
	C255.944427,302.767120 257.262268,304.720978 259.178894,307.562622 
	C253.103287,307.562622 248.284393,307.562622 243.456345,307.562622 
	C243.616730,300.852539 247.823822,297.944275 254.325043,300.576111 
z"/>
<path fill="#3BB7FF" opacity="1.000000" stroke="none" 
	d="
M400.801270,317.381470 
	C400.371796,318.009308 400.092468,318.264069 399.933960,318.783997 
	C392.205475,318.575531 386.815887,309.520355 390.499756,302.531250 
	C391.221405,301.162140 393.590210,300.661224 395.609375,299.750183 
	C401.794342,304.235687 403.452209,310.040100 400.801270,317.381470 
z"/>
<path fill="#B6B8B9" opacity="1.000000" stroke="none" 
	d="
M300.799713,267.687378 
	C300.877686,267.880676 300.733429,268.303925 300.282166,268.875000 
	C300.175934,268.654358 300.376740,268.285858 300.799713,267.687378 
z"/>
<path fill="#B6B8B9" opacity="1.000000" stroke="none" 
	d="
M302.724518,266.084167 
	C302.725128,266.287750 302.426758,266.600800 301.792969,266.967957 
	C301.780212,266.745911 302.102875,266.469757 302.724518,266.084167 
z"/>
<path fill="#B6B8B9" opacity="1.000000" stroke="none" 
	d="
M303.783081,265.074585 
	C303.844818,265.272064 303.668549,265.572479 303.232422,265.946289 
	C303.163391,265.738953 303.354279,265.458252 303.783081,265.074585 
z"/>
<path fill="#B6B8B9" opacity="1.000000" stroke="none" 
	d="
M304.781097,264.076294 
	C304.842865,264.273590 304.667084,264.574097 304.231506,264.947845 
	C304.162292,264.740540 304.352936,264.460022 304.781097,264.076294 
z"/>
<path fill="#B6B8B9" opacity="1.000000" stroke="none" 
	d="
M263.961243,269.755310 
	C263.735260,269.838196 263.449951,269.653076 263.071106,269.224182 
	C263.285706,269.149384 263.593842,269.318329 263.961243,269.755310 
z"/>
<path fill="#B6B8B9" opacity="1.000000" stroke="none" 
	d="
M262.981750,268.740112 
	C262.718750,268.848633 262.417603,268.675232 262.046936,268.240845 
	C262.299530,268.139282 262.621582,268.298737 262.981750,268.740112 
z"/>
<path fill="#B6B8B9" opacity="1.000000" stroke="none" 
	d="
M261.958740,267.755371 
	C261.735779,267.835999 261.451630,267.649170 261.071136,267.220276 
	C261.282379,267.148102 261.589966,267.318024 261.958740,267.755371 
z"/>
<path fill="#B6B8B9" opacity="1.000000" stroke="none" 
	d="
M260.969849,266.751648 
	C260.730164,266.843140 260.438385,266.661346 260.061218,266.229034 
	C260.289825,266.145142 260.603790,266.311737 260.969849,266.751648 
z"/>
<path fill="#B6B8B9" opacity="1.000000" stroke="none" 
	d="
M259.966766,265.751343 
	C259.729950,265.842407 259.438354,265.660706 259.060974,265.228638 
	C259.287476,265.145020 259.599731,265.311798 259.966766,265.751343 
z"/>
<path fill="#B6B8B9" opacity="1.000000" stroke="none" 
	d="
M258.962036,264.756561 
	C258.736938,264.838501 258.452240,264.652008 258.072205,264.222778 
	C258.285400,264.149414 258.593903,264.318787 258.962036,264.756561 
z"/>
<path fill="#B6B8B9" opacity="1.000000" stroke="none" 
	d="
M144.041229,399.241516 
	C144.259567,399.165680 144.540009,399.355988 144.922913,399.784058 
	C144.718018,399.850403 144.410675,399.679047 144.041229,399.241516 
z"/>
<path fill="#B6B8B9" opacity="1.000000" stroke="none" 
	d="
M143.044479,398.240112 
	C143.258682,398.165161 143.539047,398.355499 143.922058,398.783325 
	C143.720001,398.849030 143.415314,398.677216 143.044479,398.240112 
z"/>
<path fill="#B6B8B9" opacity="1.000000" stroke="none" 
	d="
M142.041168,397.241577 
	C142.260361,397.164490 142.542053,397.353943 142.924469,397.782532 
	C142.718033,397.850433 142.410858,397.679260 142.041168,397.241577 
z"/>
<path fill="#B6B8B9" opacity="1.000000" stroke="none" 
	d="
M141.043854,396.239960 
	C141.257889,396.166168 141.537140,396.357422 141.920746,396.785004 
	C141.719757,396.849182 141.414413,396.677094 141.043854,396.239960 
z"/>
<path fill="#B6B8B9" opacity="1.000000" stroke="none" 
	d="
M140.044556,395.239777 
	C140.259476,395.164520 140.540771,395.354309 140.923584,395.782715 
	C140.720352,395.849213 140.415634,395.677002 140.044556,395.239777 
z"/>
<path fill="#B6B8B9" opacity="1.000000" stroke="none" 
	d="
M139.040833,394.242096 
	C139.260361,394.165314 139.541489,394.354980 139.923950,394.783203 
	C139.717682,394.850708 139.410049,394.679626 139.040833,394.242096 
z"/>
<path fill="#B6B8B9" opacity="1.000000" stroke="none" 
	d="
M138.044342,393.240082 
	C138.259537,393.164276 138.540894,393.353821 138.923325,393.782043 
	C138.719788,393.848969 138.415146,393.677185 138.044342,393.240082 
z"/>
<path fill="#B6B8B9" opacity="1.000000" stroke="none" 
	d="
M137.042267,392.240845 
	C137.260071,392.165039 137.541306,392.354828 137.923920,392.783203 
	C137.718750,392.850037 137.412216,392.678253 137.042267,392.240845 
z"/>
<path fill="#B6B8B9" opacity="1.000000" stroke="none" 
	d="
M136.041473,391.242249 
	C136.260040,391.165100 136.541000,391.354767 136.923401,391.782776 
	C136.717865,391.850403 136.410858,391.679718 136.041473,391.242249 
z"/>
<path fill="#B6B8B9" opacity="1.000000" stroke="none" 
	d="
M135.042633,390.241577 
	C135.261307,390.163422 135.544174,390.351624 135.925781,390.780396 
	C135.718597,390.849945 135.412704,390.678925 135.042633,390.241577 
z"/>
<path fill="#B6B8B9" opacity="1.000000" stroke="none" 
	d="
M176.304169,343.002472 
	C176.471115,342.414337 176.972351,341.813690 177.744751,341.091370 
	C177.556763,341.643097 177.097610,342.316528 176.304169,343.002472 
z"/>
<path fill="#B6B8B9" opacity="1.000000" stroke="none" 
	d="
M173.305115,346.007507 
	C173.473358,345.420502 173.976959,344.825378 174.747742,344.100037 
	C174.556778,344.646332 174.098618,345.322845 173.305115,346.007507 
z"/>
<path fill="#B6B8B9" opacity="1.000000" stroke="none" 
	d="
M178.304123,341.005249 
	C178.473282,340.420715 178.976898,339.825470 179.747711,339.100098 
	C179.556137,339.644775 179.097351,340.319672 178.304123,341.005249 
z"/>
<path fill="#B6B8B9" opacity="1.000000" stroke="none" 
	d="
M175.245728,343.966858 
	C175.160080,343.735809 175.348663,343.452545 175.778107,343.070374 
	C175.852631,343.285889 175.686295,343.600250 175.245728,343.966858 
z"/>
<path fill="#B6B8B9" opacity="1.000000" stroke="none" 
	d="
M335.996613,341.695251 
	C335.388580,341.540375 334.753204,341.061340 334.049500,340.279175 
	C334.643829,340.441071 335.306549,340.906097 335.996613,341.695251 
z"/>
<path fill="#B6B8B9" opacity="1.000000" stroke="none" 
	d="
M336.965759,342.747192 
	C336.734070,342.835205 336.445129,342.653351 336.067719,342.223633 
	C336.289001,342.142944 336.598755,342.310120 336.965759,342.747192 
z"/>
<path fill="#B6B8B9" opacity="1.000000" stroke="none" 
	d="
M337.977295,343.742493 
	C337.725494,343.843323 337.426910,343.668243 337.055786,343.234924 
	C337.299042,343.139984 337.614807,343.303284 337.977295,343.742493 
z"/>
<path fill="#B6B8B9" opacity="1.000000" stroke="none" 
	d="
M338.961487,344.754944 
	C338.738220,344.835541 338.452209,344.650269 338.073486,344.220734 
	C338.286743,344.147339 338.592712,344.318176 338.961487,344.754944 
z"/>
</svg>